<?xml version="1.0" encoding="utf-8" ?><svg xmlns="http://www.w3.org/2000/svg" xmlns:xlink="http://www.w3.org/1999/xlink" width="1365" height="1024" viewBox="0 0 1365 1024"><path fill="#272627" d="M271.935 418.79C282.296 410.547 293.397 407.666 306.324 410.721C303.195 412.118 302.284 411.945 298.98 411.812L298.114 412.373C290.222 412.993 285.821 414.202 278.575 417.632C275.656 417.674 274.683 417.556 271.935 418.79Z"/><path fill="#272627" d="M776.543 514.205C776.157 508.451 775.36 501.872 775.638 496.09C776.863 470.567 783.08 447.601 799.58 427.52C815.948 406.731 842.597 402.365 862.95 420.855C885.674 441.499 892.491 472.846 894.084 502.396C895.851 535.173 888.772 572.501 867.072 598.041C849.775 618.4 824.486 620.111 805.124 601.65C785.477 583.248 777.762 552.962 775.43 526.927C775.234 524.454 775.483 521.985 775.859 519.586L776.574 514.863C778.447 539.381 784.423 575.466 800.486 592.8C851.258 647.589 889.442 571.626 891.547 525.79C893.22 489.367 890.215 458.89 868.004 430.083C852.536 410.021 826.87 404.852 808.309 421.95C781.782 446.484 778.825 480.807 776.543 514.205Z"/><path fill="#272627" d="M529.888 551.015C533.017 570.167 536.653 595.136 553.129 607.045C573.442 621.728 599.131 605.704 593.459 580.753C587.98 556.652 568.708 535.569 548.836 521.717C543.599 518.175 538.048 515.209 533.234 511.948C539.746 507.602 546.747 503.976 553.136 499.469C571.69 486.381 589.908 466.227 594.279 443.436C595.63 436.391 595.624 428.769 591.475 422.614C588.148 417.678 582.48 414.085 576.642 413.028C568.567 411.565 559.433 413.419 552.743 418.209C531.806 433.2 531.106 473.831 528.156 476.316C526.702 472.448 527.231 468.505 526.382 464.573C522.778 447.88 517.248 423.035 499.575 415.856C471 404.25 452.665 427.637 465.03 454.52C477.503 481.639 498.442 498.544 523.852 511.945C497.396 527.055 472.885 548.02 462.843 577.909C454.663 602.253 478.676 620.467 500.52 608.575C508.511 604.224 513.729 595.583 517.618 587.582C518.842 591.425 515.675 591.304 517.377 593.183L518.115 593.399C514.473 599.754 511.576 604.596 505.569 609.019C493.299 618.054 473.145 617.446 463.87 604.37C459.319 597.957 457.428 589.412 459.014 581.709C463.81 558.407 481.04 539.816 498.943 525.231C504.783 520.474 511.764 516.06 518.029 511.683C498.642 500.703 484.478 490.908 471.102 472.399C463.744 462.217 457.465 446.159 459.173 433.462C461.498 416.172 476.254 408.023 492.611 410.826C510.394 413.698 519.369 429.105 525.001 444.745C526.1 447.799 527.636 456.798 529.078 458.82C532.502 442.92 539.801 419.641 555.617 413.308C586.944 400.764 606.028 424.396 593.937 454.094C582.552 482.058 562.567 499.712 536.459 512.039C541.929 513.635 545.295 515.233 550.093 518.548C570.983 533.643 589.981 554.6 596.03 580.268C602.586 608.09 573.487 624.796 551.226 609.525C538.314 600.667 532.225 581.126 529.712 565.739C530.811 560.921 528.307 555.828 529.888 551.015Z"/><path fill="#272627" d="M306.324 410.721C345.393 419.129 356.143 467.417 357.428 501.899C358.808 538.93 355.659 584.362 321.365 607.446C280.017 633.623 242.93 583.034 241.046 545.844C236.957 536.458 238.063 484.162 241.698 473.521L242.493 474.143L242.913 472.137C243.042 479.308 239.601 488.42 241.976 493.663C241.584 505.674 242.491 520.618 242.015 531.01C242.698 534.932 243.312 540.71 243.733 544.92C247.483 583.984 282.64 633.174 324.413 601.42C347.048 584.213 353.305 549.822 354.601 523.043C356.534 483.093 348.803 417.487 298.114 412.373L298.98 411.812C302.284 411.945 303.195 412.118 306.324 410.721Z"/><path fill="#272627" d="M236.769 456.096C235.862 456.677 234.363 457.545 233.631 458.24C235.875 442.435 238.423 429.304 244.13 414.227L196.55 413.846C208.033 439.534 214.89 476.96 217.238 504.949C214.842 502.094 215.44 501.843 214.622 497.678C212.595 480.114 206.289 454.816 201.898 437.649C199.768 429.321 195.339 420.169 193.309 411.313C200.58 411.111 240.64 410.857 245.624 411.892C246.417 413.119 245.927 416.033 245.573 417.429C242.236 430.57 238.561 442.535 236.769 456.096Z"/><path fill="#272627" d="M753.011 413.422C759.015 410.672 763.954 411.269 770.551 411.315C749.859 456.032 735.787 496.042 734.415 546.036C733.927 563.836 734.807 582.167 726.936 598.524C748.847 582.849 753.572 555.891 758.412 531.057C759.132 527.364 759.14 520.019 760.761 517.971C762.619 516.991 762.972 517.196 765.178 517.456C766.912 518.638 767.107 521.033 767.504 523.148C771.928 546.702 775.669 570.407 784.186 592.919C785.617 596.7 791.21 608.896 791.595 612.038C789.673 613.94 785.003 613.494 782.293 613.48L689.866 613.596C698.101 577.577 704.143 537.915 709.059 501.188C709.837 495.373 711.133 473.267 713.847 470.255C714.347 484.093 711.561 502.173 709.667 516.051C705.42 547.171 699.789 579.92 693.095 610.633C724.698 609.901 757.147 610.42 788.861 610.228C777.934 585.664 772.918 566.979 767.981 540.373C766.405 531.881 765.35 522.834 763.533 514.539C758.031 546.639 755.576 588.078 721.565 603.442C734.178 583.204 731.16 566.129 732.063 543.159C733.889 496.658 746.013 454.789 767.298 413.486L753.011 413.422Z"/><path fill="#FEFEFE" d="M776.543 514.205C778.825 480.807 781.782 446.484 808.309 421.95C826.87 404.852 852.536 410.021 868.004 430.083C890.215 458.89 893.22 489.367 891.547 525.79C889.442 571.626 851.258 647.589 800.486 592.8C784.423 575.466 778.447 539.381 776.574 514.863L776.543 514.205ZM826.626 492.916C816.254 494.1 806.579 496.152 797.865 502.376C787.869 509.516 792.281 519.413 801.171 524.83C814.696 533.071 830.485 533.719 845.838 532.539C907.069 522.128 869.94 486.233 826.626 492.916Z"/><path fill="#272627" d="M361.241 413.961L352.414 414.141C361.189 440.85 365.587 474.61 363.954 502.652C360.979 499.299 361.16 483.478 360.924 478.159C359.91 455.237 355.205 433.851 349.013 411.873C353.252 411.828 357.909 411.329 361.241 413.961Z"/><path fill="#272627" d="M630.362 413.429C674.325 409.112 717.178 423.776 705.55 478.102C697.604 515.23 653.928 520.725 622.313 520.815C624.934 539.97 629.647 550.725 637.655 567.916C638.16 570.459 639.717 574.729 639.563 576.697C629.024 560.99 621.85 535.927 618.983 517.33C641.567 519.034 668.942 516.475 687.244 501.935C706.978 486.257 711.626 452.331 694.799 432.922C679.373 415.128 652.078 414.936 630.362 413.429Z"/><path fill="#272627" d="M1092.04 413.888C1111.09 410.822 1135 414.938 1153.71 412.847C1221 405.326 1246.48 483.015 1185.06 512.866C1177.71 516.439 1171.07 517.263 1162.78 517.878C1189.48 528.36 1202.93 545.94 1215.86 570.539C1228.98 595.483 1208.24 622.661 1182.13 611.872C1153.88 600.198 1146.36 560.022 1135.64 535.75C1137.92 566.536 1146.26 584.941 1154.55 613.325L1053.58 613.317C1040.96 613.301 1016.28 612.445 1004.9 613.364C1005.27 607.04 1009.29 551.275 1010.25 550.205C1010.88 567.644 1009.02 593.231 1007.41 610.571L1107.94 610.588C1100.34 566.81 1075.32 540.557 1033.68 527.384L1033.56 525.948C1035.75 523.961 1042.96 524.595 1046.08 524.601C1065.52 524.64 1084.96 524.59 1104.4 524.563C1104.35 515.762 1104.28 507.023 1104.5 498.22C1107.81 507.606 1107.03 517.527 1107.09 527.58C1087.1 527.54 1065.51 527.039 1045.7 528.006C1071.77 539.655 1092.17 556.412 1102.46 583.833C1103.57 586.802 1107.72 601.085 1108.64 602.228L1109.12 601.92C1109.81 601.477 1109.53 601.642 1110.29 601.273L1109.15 610.593L1151.18 610.619C1139.59 578.799 1133.51 556.95 1133.53 522.775C1136.58 529.608 1138.32 537.553 1140.91 544.653C1148.86 566.131 1157.44 591.103 1176.21 605.634C1195.57 620.215 1221.49 605.424 1216.8 581.131C1214.81 570.833 1207.62 559.367 1201.14 551.116C1191.29 538.581 1178.83 525.63 1163.54 520.26C1161.1 519.402 1158.03 519.793 1155.97 518.442C1156.34 515.99 1158.53 516.114 1160.88 516.054C1204.06 514.956 1237.24 465.9 1204.22 430.746C1184.38 409.628 1139.97 413.871 1111.51 413.966C1113.42 425.837 1114.5 441.787 1114.46 453.714C1111 449.595 1111.24 423.689 1111.04 417.136L1109.96 417.332L1110.01 418.217C1110.88 435.472 1100.7 457.312 1088.69 469.394C1071.59 486.603 1065.48 487.255 1045.62 494.439C1048.9 497.95 1069.16 494.105 1074.08 497.475C1074.13 497.51 1075.98 498.191 1076.04 498.213C1068.71 498.418 1036.86 500.18 1032.95 496.59C1036.58 489.298 1099.87 492.495 1109.27 414.018C1103.53 414.034 1097.78 413.949 1092.04 413.888Z"/><path fill="#FEFEFE" d="M278.575 417.632C285.821 414.202 290.222 412.993 298.114 412.373C348.803 417.487 356.534 483.093 354.601 523.043C353.305 549.822 347.048 584.213 324.413 601.42C282.64 633.174 247.483 583.984 243.733 544.92C243.312 540.71 242.698 534.932 242.015 531.01C242.491 520.618 241.584 505.674 241.976 493.663C242.619 490.079 242.901 485.69 243.417 481.962C247.105 455.329 255.523 433.25 278.575 417.632ZM292.375 492.282C279.795 493.349 236.265 501.225 262.138 523.714C271.348 531.72 293.73 532.372 306.092 531.969C367.978 524.494 339.018 487.479 292.375 492.282Z"/><path fill="#272627" d="M460.521 413.571L461.041 412.604C461.862 413.57 461.683 414.182 461.482 415.545C458.022 439.118 445.089 465.608 425.392 479.683L425.527 475.637C446.961 456.717 452.671 439.956 460.521 413.571Z"/><path fill="#FEFEFE" d="M529.888 551.015C529.813 547.961 529.893 546.426 528.999 543.437L528.177 543.012C526.762 546.036 526.102 555.431 525.543 559.507C524.115 569.906 521.059 577.82 517.618 587.582C513.729 595.583 508.511 604.224 500.52 608.575C478.676 620.467 454.663 602.253 462.843 577.909C472.885 548.02 497.396 527.055 523.852 511.945C498.442 498.544 477.503 481.639 465.03 454.52C452.665 427.637 471 404.25 499.575 415.856C517.248 423.035 522.778 447.88 526.382 464.573C527.231 468.505 526.702 472.448 528.156 476.316C531.106 473.831 531.806 433.2 552.743 418.209C559.433 413.419 568.567 411.565 576.642 413.028C582.48 414.085 588.148 417.678 591.475 422.614C595.624 428.769 595.63 436.391 594.279 443.436C589.908 466.227 571.69 486.381 553.136 499.469C546.747 503.976 539.746 507.602 533.234 511.948C538.048 515.209 543.599 518.175 548.836 521.717C568.708 535.569 587.98 556.652 593.459 580.753C599.131 605.704 573.442 621.728 553.129 607.045C536.653 595.136 533.017 570.167 529.888 551.015Z"/><path fill="#FEFEFE" d="M233.631 458.24C232.253 471.508 230.002 507.642 231.311 521.56C230.994 547.497 232.684 586.786 241.688 610.579C229.489 610.815 217.524 610.375 207.028 603.415C169.938 578.819 158.405 529.025 148.563 488.426C147.795 485.26 147.098 482.124 146.088 479.044C144.514 516.547 156.248 578.545 177.748 610.5C166.402 610.525 145.117 609.887 134.434 610.754C135.033 605.704 134.829 588.327 134.714 582.307C134.437 567.802 135.242 549.96 134.065 535.82C135.423 514.03 131.288 438.234 137.341 424.959C139.602 420.001 143.362 415.858 148.644 414.092C154.118 412.262 160.434 413.585 165.48 416.107C186.269 426.494 198.903 462.321 205.957 483.082C210.552 498.554 213.731 511.677 217.487 527.469C218.154 531.065 218.692 533.446 219.696 536.96L219.391 525.556C218.871 518.918 217.944 511.624 217.238 504.949C214.89 476.96 208.033 439.534 196.55 413.846L244.13 414.227C238.423 429.304 235.875 442.435 233.631 458.24Z"/><path fill="#FEFEFE" d="M601.389 413.522L630.362 413.429C652.078 414.936 679.373 415.128 694.799 432.922C711.626 452.331 706.978 486.257 687.244 501.935C668.942 516.475 641.567 519.034 618.983 517.33C621.85 535.927 629.024 560.99 639.563 576.697C642.567 585.112 657.905 603.589 663.681 610.369C644.747 609.485 620.953 610.129 601.666 610.145C601.79 600.986 602.112 577.387 601.246 569.308C601.437 518.444 602.783 463.875 601.389 413.522Z"/><path fill="#FEFEFE" d="M708.943 413.275C723.333 413.637 738.558 413.412 753.011 413.422L767.298 413.486C746.013 454.789 733.889 496.658 732.063 543.159C731.16 566.129 734.178 583.204 721.565 603.442C755.576 588.078 758.031 546.639 763.533 514.539C765.35 522.834 766.405 531.881 767.981 540.373C772.918 566.979 777.934 585.664 788.861 610.228C757.147 610.42 724.698 609.901 693.095 610.633C699.789 579.92 705.42 547.171 709.667 516.051C711.561 502.173 714.347 484.093 713.847 470.255C714.435 450.428 713.682 432.572 708.943 413.275Z"/><path fill="#FEFEFE" d="M893.635 413.65C912.802 413.737 930.644 412.984 950.537 414.545C994.162 417.968 1015.48 465.339 986.458 498.684C977.803 508.629 963.904 513.481 951.281 515.812C948.232 516.374 941.152 515.874 938.898 517.518L939.647 518.534C948.799 520.984 956.896 523.716 964.788 529.245C975.565 536.794 984.494 547.544 991.076 558.922C996.776 568.774 1003.09 583.005 1000.23 594.626C996.956 607.961 982.712 614.519 970.012 610.833C957.515 607.191 949.219 594.995 943.233 584.174C934.353 568.035 927.081 541.246 916.201 526.884C918.019 554.209 925.048 585.7 937.21 610.377C923.666 610.266 905.971 609.603 892.756 610.181C896.09 588.683 901.309 549.875 900.403 527.744C902.745 496.511 901.653 442.616 893.635 413.65Z"/><path fill="#FEFEFE" d="M352.414 414.141L361.241 413.961L429.327 414.025C434.915 414.029 456.166 414.365 460.521 413.571C452.671 439.956 446.961 456.717 425.527 475.637C414.284 484.273 408.164 487.493 395.174 492.929C388.938 494.822 382.901 496.576 376.613 498.287C381.989 498.421 387.122 498.556 392.507 498.443C405.151 498.53 417.371 498.419 430.013 498.157C437.168 498.132 446.004 498.359 453.01 498.057L466.806 498.167L466.762 523.293C436.936 523.431 400.999 522.326 371.95 523.595C418.936 536.565 448.712 561.736 459.841 610.663L353.325 610.526C362.784 580.029 364.732 550.645 363.831 518.986C364.135 514.806 363.937 507.113 363.954 502.652C365.587 474.61 361.189 440.85 352.414 414.141Z"/><path fill="#FEFEFE" d="M1006.98 413.841C1035 413.974 1064.07 414.281 1092.04 413.888C1097.78 413.949 1103.53 414.034 1109.27 414.018C1099.87 492.495 1036.58 489.298 1032.95 496.59C1036.86 500.18 1068.71 498.418 1076.04 498.213L1104.5 498.22C1104.28 507.023 1104.35 515.762 1104.4 524.563C1084.96 524.59 1065.52 524.64 1046.08 524.601C1042.96 524.595 1035.75 523.961 1033.56 525.948L1033.68 527.384C1075.32 540.557 1100.34 566.81 1107.94 610.588L1007.41 610.571C1009.02 593.231 1010.88 567.644 1010.25 550.205C1010.67 522.596 1010.51 494.002 1010.22 466.415C1010.06 451.649 1009.44 427.798 1006.98 413.841Z"/><path fill="#FEFEFE" d="M1114.46 453.714C1114.5 441.787 1113.42 425.837 1111.51 413.966C1139.97 413.871 1184.38 409.628 1204.22 430.746C1237.24 465.9 1204.06 514.956 1160.88 516.054C1158.53 516.114 1156.34 515.99 1155.97 518.442C1158.03 519.793 1161.1 519.402 1163.54 520.26C1178.83 525.63 1191.29 538.581 1201.14 551.116C1207.62 559.367 1214.81 570.833 1216.8 581.131C1221.49 605.424 1195.57 620.215 1176.21 605.634C1157.44 591.103 1148.86 566.131 1140.91 544.653C1138.32 537.553 1136.58 529.608 1133.53 522.775C1133.51 556.95 1139.59 578.799 1151.18 610.619L1109.15 610.593L1110.29 601.273C1114.67 572.659 1115.29 537.642 1115.37 508.696C1115.41 492.058 1115.58 470.072 1114.46 453.714Z"/><path fill="#272627" d="M271.935 418.79C274.683 417.556 275.656 417.674 278.575 417.632C255.523 433.25 247.105 455.329 243.417 481.962C242.901 485.69 242.619 490.079 241.976 493.663C239.601 488.42 243.042 479.308 242.913 472.137L242.493 474.143L241.698 473.521C243.519 452.585 255.894 431.96 271.935 418.79Z"/><path fill="#272627" d="M233.631 458.24C234.363 457.545 235.862 456.677 236.769 456.096C233.381 482.416 234.349 507.38 233.927 533.375C232.805 530.019 232.758 526.124 231.311 521.56C230.002 507.642 232.253 471.508 233.631 458.24Z"/><path fill="#272627" d="M395.174 492.929C408.164 487.493 414.284 484.273 425.527 475.637L425.392 479.683C419.253 484.225 414.918 487.046 407.965 490.477C405.642 491.624 400.127 494.086 398.335 495.168L396.34 494.823L395.174 492.929Z"/><path fill="#272627" d="M231.311 521.56C232.758 526.124 232.805 530.019 233.927 533.375C235.087 558.868 236.209 589.194 245.313 613.163C222.961 614.417 211.236 612.628 193.283 596.694C173.613 579.235 160.619 546.431 154.075 521.269C153.322 518.374 151.01 503.885 149.188 503.059C152.509 529.837 157.131 557.376 166.92 582.749C170.471 591.951 178.619 604.524 181.247 611.75C175.625 614.453 140.028 614.033 132.167 613.458C132.136 610.367 131.995 607.426 132.496 604.373C132.545 606.31 132.308 609.511 133.377 610.889L134.434 610.754C145.117 609.887 166.402 610.525 177.748 610.5C156.248 578.545 144.514 516.547 146.088 479.044C147.098 482.124 147.795 485.26 148.563 488.426C158.405 529.025 169.938 578.819 207.028 603.415C217.524 610.375 229.489 610.815 241.688 610.579C232.684 586.786 230.994 547.497 231.311 521.56Z"/><defs><linearGradient id="gradient_0" gradientUnits="userSpaceOnUse" x1="216.49905" y1="504.20935" x2="214.78328" y2="525.12842"><stop offset="0" stop-color="#1A1919"/><stop offset="1" stop-color="#333334"/></linearGradient></defs><path fill="url(#gradient_0)" d="M205.957 483.082C209.903 485.565 213.299 498.196 213.855 502.878C214.309 500.74 214.47 499.85 214.622 497.678C215.44 501.843 214.842 502.094 217.238 504.949C217.944 511.624 218.871 518.918 219.391 525.556L217.487 527.469C213.731 511.677 210.552 498.554 205.957 483.082Z"/><path fill="#272627" d="M306.092 531.969C293.73 532.372 271.348 531.72 262.138 523.714C236.265 501.225 279.795 493.349 292.375 492.282C339.018 487.479 367.978 524.494 306.092 531.969ZM294.516 494.953C237.439 499.38 251.04 530.435 303.161 529.313C312.989 528.084 339.674 524.576 337.993 511.208C336.36 498.218 304.097 493.855 294.516 494.953Z"/><defs><linearGradient id="gradient_1" gradientUnits="userSpaceOnUse" x1="394.44879" y1="498.52649" x2="383.36127" y2="493.47351"><stop offset="0" stop-color="#262526"/><stop offset="1" stop-color="#464747"/></linearGradient></defs><path fill="url(#gradient_1)" d="M376.613 498.287C382.901 496.576 388.938 494.822 395.174 492.929L396.34 494.823L398.335 495.168L398.582 495.789C396.81 496.393 393.679 497.202 392.507 498.443C387.122 498.556 381.989 498.421 376.613 498.287Z"/><path fill="#272627" d="M845.838 532.539C830.485 533.719 814.696 533.071 801.171 524.83C792.281 519.413 787.869 509.516 797.865 502.376C806.579 496.152 816.254 494.1 826.626 492.916C869.94 486.233 907.069 522.128 845.838 532.539ZM830.623 495.07C770.562 502.674 795.276 532.034 839.293 530.434C853.251 529.402 873.336 526.159 876.445 509.888C865.42 497.117 846.775 493.699 830.623 495.07Z"/><path fill="#272627" d="M453.01 498.057C457.975 494.709 469.001 491.921 469.825 500.529C470.615 508.782 469.848 517.677 469.881 526.002C446.262 526.003 414.964 525.602 391.575 526.848C429.63 543.532 457.324 570.28 463.152 613.389C450.289 613.686 352.83 614.58 350.24 612.968C349.532 609.275 352.684 601.495 353.681 597.499C358.962 576.33 360.038 554.405 362.833 532.833C363.407 528.402 363.161 522.999 363.831 518.986C364.732 550.645 362.784 580.029 353.325 610.526L459.841 610.663C448.712 561.736 418.936 536.565 371.95 523.595C400.999 522.326 436.936 523.431 466.762 523.293L466.806 498.167L453.01 498.057Z"/><path fill="#272627" d="M392.507 498.443C393.679 497.202 396.81 496.393 398.582 495.789C405.944 495.766 424.652 494.539 430.013 498.157C417.371 498.419 405.151 498.53 392.507 498.443Z"/><path fill="#272627" d="M939.647 518.534C970.602 516.632 1001.16 559.595 1003.15 587.63C1004.28 603.451 992.937 613.978 977.466 614.574C948.794 614.375 935.894 574.429 926.677 552.715C924.068 546.57 922.424 540.507 918.979 535.117C920.193 550.94 925.961 572.979 931.184 588.148C933.976 596.257 938.345 604.798 940.839 613.066C923.956 613.491 906.803 613.321 889.894 613.297C894.051 586.033 897.093 559.438 898.825 531.911C898.911 530.549 899.555 528.816 900.403 527.744C901.309 549.875 896.09 588.683 892.756 610.181C905.971 609.603 923.666 610.266 937.21 610.377C925.048 585.7 918.019 554.209 916.201 526.884C927.081 541.246 934.353 568.035 943.233 584.174C949.219 594.995 957.515 607.191 970.012 610.833C982.712 614.519 996.956 607.961 1000.23 594.626C1003.09 583.005 996.776 568.774 991.076 558.922C984.494 547.544 975.565 536.794 964.788 529.245C956.896 523.716 948.799 520.984 939.647 518.534Z"/><path fill="#272627" d="M217.487 527.469L219.391 525.556L219.696 536.96C218.692 533.446 218.154 531.065 217.487 527.469Z"/><path fill="#272627" d="M134.065 535.82C135.242 549.96 134.437 567.802 134.714 582.307C134.829 588.327 135.033 605.704 134.434 610.754L133.377 610.889C132.308 609.511 132.545 606.31 132.496 604.373C132.483 582.39 132.562 557.717 134.065 535.82Z"/><defs><linearGradient id="gradient_2" gradientUnits="userSpaceOnUse" x1="528.03833" y1="569.95508" x2="520.84589" y2="567.83405"><stop offset="0" stop-color="#121312"/><stop offset="1" stop-color="#444243"/></linearGradient></defs><path fill="url(#gradient_2)" d="M517.618 587.582C521.059 577.82 524.115 569.906 525.543 559.507C526.102 555.431 526.762 546.036 528.177 543.012L528.999 543.437C529.893 546.426 529.813 547.961 529.888 551.015C528.307 555.828 530.811 560.921 529.712 565.739C527.561 566.779 528.07 567.149 527.025 569.996C524.454 577.002 522.065 587.097 518.115 593.399L517.377 593.183C515.675 591.304 518.842 591.425 517.618 587.582Z"/><path fill="#272627" d="M637.655 567.916C643.465 578.988 649.252 587.799 656.667 597.908C659.707 602.053 666.192 609.175 668.457 612.911C648.973 614.071 628.705 612.92 609.147 613.447C605.998 613.532 602.205 613.494 599.076 613.306C599.482 606.273 600.393 599.699 600.757 592.551C601.067 586.463 600.411 574.717 601.246 569.308C602.112 577.387 601.79 600.986 601.666 610.145C620.953 610.129 644.747 609.485 663.681 610.369C657.905 603.589 642.567 585.112 639.563 576.697C639.717 574.729 638.16 570.459 637.655 567.916Z"/></svg>